<svg fill="none" height="120" viewBox="0 0 120 120" width="120" xmlns="http://www.w3.org/2000/svg"><g fill="#1d2a39"><path d="m27.3215 108.463h10.371 24.2221 27.7366 20.9148 5.05c2.16 0 3.962-1.802 3.962-3.962s-1.802-3.962-3.962-3.962c-3.457 0-6.914 0-10.371 0-8.0742 0-16.1481 0-24.2222 0-9.2455 0-18.4911 0-27.7366 0-6.9715 0-13.9429 0-20.9144 0-1.6834 0-3.3669 0-5.0505 0-2.1597 0-3.9619 1.802-3.9619 3.962s1.8024 3.962 3.9621 3.962z"/><path d="m15.4972 96.9289c.5247.0044 1.0441.0391 1.5646.1053-.3511-.0473-.7022-.0944-1.0532-.1415.5699.082 1.1289.2009 1.683.3583.3023.0858.5986.1915.8928.3021.3765.1499.2341.0884-.427-.1849.1713.0741.3389.1566.5063.2389.4997.2458.9745.5395 1.4329.8546.8375.5757-.7031-.5942.0747.0581.2356.1975.4583.4099.6774.6255.1753.1727.3408.3548.5047.538.0814.0923.1612.1859.2394.2807.4715.562-.6026-.8086-.1677-.2173.3665.4983.6802 1.0333.9618 1.5833.1411.276.5085 1.171-.0147-.095.1198.29.2206.587.3161.886.1944.607.3222 1.234.413 1.864-.0471-.351-.0944-.702-.1415-1.053.1326 1.044.1326 2.086 0 3.129.0471-.351.0944-.702.1415-1.053-.0822.57-.2011 1.129-.3584 1.683-.0859.303-.1916.599-.3021.893-.15.376-.0884.234.1848-.427-.0741.171-.1565.339-.2389.506-.2457.5-.5395.975-.8546 1.433-.5756.838.5944-.703-.058.075-.1977.235-.4099.458-.6256.677-.1725.175-.3546.341-.5378.505-.0924.081-.1859.161-.2809.239-.562.472.8087-.603.2174-.168-.4984.367-1.0337.68-1.5837.962-.2753.141-1.1703.509.0952-.015-.2899.12-.5875.221-.8862.317-.6073.194-1.2338.322-1.8641.413.3511-.048.7022-.095 1.0532-.142-1.0435.133-2.0855.133-3.1291 0 .3511.047.7021.094 1.0533.142-.5701-.082-1.129-.201-1.6829-.359-.3024-.086-.5987-.191-.8929-.302-.3764-.15-.234-.088.4271.185-.1713-.074-.3389-.156-.5063-.239-.4997-.246-.9745-.539-1.433-.854-.8375-.576.7031.594-.0747-.058-.2356-.198-.4583-.41-.6775-.626-.17529-.173-.34085-.355-.5047-.538-.08136-.092-.16117-.186-.23942-.281-.47147-.562.60262.809.16768.218-.36648-.499-.68018-1.034-.96176-1.584-.14108-.275-.50855-1.17.01471.095-.11985-.29-.22059-.587-.3161-.886-.19442-.607-.3222-1.234-.41304-1.864.04712.351.09438.702.1415 1.053-.13272-1.044-.13272-2.085 0-3.129-.04712.351-.09438.702-.1415 1.053.08221-.57.20107-1.129.35842-1.683.08589-.302.19159-.598.3021-.893.14998-.376.08843-.234-.1848.427.07414-.171.1565-.338.23885-.506.24578-.499.53953-.974.85465-1.4328.57561-.8376-.59444.7028.05801-.0747.19753-.2356.40992-.4583.6256-.6773.1726-.1753.3547-.3409.5379-.5047.0924-.0813.186-.1612.2809-.2393.562-.4715-.8086.6026-.2173.1677.4983-.3665 1.0336-.6801 1.5836-.9618.2754-.1411 1.1703-.5085-.0952.0147.2901-.12.5875-.2206.8862-.3161.6073-.1944 1.2339-.3222 1.8641-.413-.3511.0471-.7021.0942-1.0533.1415.5205-.0662 1.04-.1009 1.5645-.1053 2.1594-.0183 3.962-1.7885 3.962-3.9619 0-2.146-1.8022-3.9802-3.962-3.962-4.0567.0343-7.8909 1.6125-10.82288 4.408-2.91542 2.7797-4.493832 6.702-4.6622149 10.687-.1709291 4.05 1.4810549 7.968 4.1490049 10.951 2.69171 3.009 6.58249 4.609 10.54669 4.911 4.0692.31 7.9972-1.311 11.0664-3.885 3.1053-2.605 4.7212-6.458 5.1553-10.401.2059-1.871-.0587-3.868-.6003-5.661-.6287-2.0819-1.6884-3.8198-3.017-5.5105-2.4879-3.1658-6.3421-4.8974-10.2504-5.3942-.5205-.0662-1.0401-.1009-1.5646-.1053-2.1598-.0182-3.9619 1.816-3.9619 3.962 0 2.1734 1.8025 3.9436 3.9619 3.9619z"/><path d="m94.3174 63.959h20.5336.781c2.16 0 3.962-1.8021 3.962-3.9619 0-2.1597-1.802-3.9619-3.962-3.9619-6.844 0-13.689 0-20.5332 0-.2605 0-.521 0-.7814 0-2.1598 0-3.9619 1.8022-3.9619 3.9619s1.8022 3.9619 3.9619 3.9619z"/><path d="m3.96194 63.959h13.04736 26.9056 22.4086 3.7835c2.1598 0 3.9619-1.8021 3.9619-3.9619 0-2.1597-1.8021-3.9619-3.9619-3.9619-4.3491 0-8.6983 0-13.0474 0-8.9686 0-17.937 0-26.9055 0-7.4696 0-14.9391 0-22.40865 0-1.26117 0-2.52234 0-3.78351 0-2.15968 0-3.96194 1.8022-3.96194 3.9619s1.80226 3.9619 3.96194 3.9619z"/><path d="m82.2589 52.426c.5246.0044 1.0441.039 1.5646.1052-.3509-.0471-.7021-.0943-1.0532-.1415.5701.0823 1.129.2011 1.6831.3585.3024.0858.5986.1915.8927.3021.3766.1499.2342.0884-.427-.1848.1713.0741.3389.1565.5063.2388.4996.2458.9745.5395 1.4329.8547.8377.5756-.7031-.5945.0747.058.2356.1975.4584.4099.6774.6255.1753.1727.3409.3548.5047.538.0812.0924.1612.1859.2393.2809.4715.562-.6027-.8087-.1677-.2174.3665.4984.68 1.0337.9618 1.5837.141.2753.5085 1.1703-.0147-.0952.1199.2899.2206.5875.3161.8862.1944.6073.3222 1.2338.413 1.8641-.0471-.3511-.0942-.7022-.1415-1.0534.1327 1.0436.1327 2.0856 0 3.1291.0473-.3509.0944-.7021.1415-1.0531-.0821.5701-.2009 1.129-.3583 1.6831-.0859.3024-.1916.5985-.3021.8927-.15.3765-.0884.2342.1848-.427-.074.1713-.1565.3388-.2388.5062-.2458.4997-.5396.9745-.8547 1.433-.5756.8376.5943-.7031-.058.0747-.1975.2356-.4099.4583-.6256.6773-.1726.1754-.3547.3409-.5379.5048-.0923.0812-.186.1611-.2808.2392-.5621.4715.8087-.6026.2174-.1676-.4984.3664-1.0338.68-1.5837.9617-.2752.1411-1.1703.5086.0954-.0147-.2901.12-.5875.2206-.8863.3161-.6072.1944-1.2338.3222-1.8641.413.351-.0471.7022-.0942 1.0531-.1415-1.0435.1328-2.0854.1328-3.1289 0 .3509.0473.7021.0944 1.0532.1415-.5701-.082-1.129-.2009-1.6832-.3582-.3023-.0859-.5985-.1916-.8927-.3021-.3765-.15-.2341-.0885.4271.1848-.1714-.074-.3389-.1565-.5063-.2389-.4996-.2458-.9745-.5395-1.433-.8546-.8376-.5756.7031.5943-.0747-.058-.2356-.1976-.4583-.41-.6773-.6256-.1753-.1726-.3409-.3547-.5047-.538-.0813-.0922-.1612-.1859-.2393-.2807-.4715-.5622.6026.8087.1677.2173-.3665-.4983-.6801-1.0338-.9618-1.5836-.1411-.2752-.5085-1.1703.0147.0954-.12-.2901-.2206-.5875-.3161-.8864-.1944-.6072-.3222-1.2337-.413-1.8641.0471.3511.0942.7023.1415 1.0532-.1328-1.0436-.1328-2.0854 0-3.1291-.0473.3511-.0944.7021-.1415 1.0533.082-.5701.2009-1.129.3582-1.683.0859-.3023.1916-.5986.3021-.8928.15-.3764.0885-.2341-.1847.427.074-.1712.1564-.3389.2388-.5063.2458-.4996.5395-.9745.8546-1.4329.5757-.8375-.5942.7031.0581-.0747.1975-.2356.4099-.4583.6255-.6775.1726-.1753.3548-.3409.538-.5047.0923-.0814.1859-.1612.2807-.2394.5622-.4715-.8086.6026-.2173.1676.4983-.3664 1.0338-.6801 1.5836-.9617.2752-.1411 1.1704-.5086-.0953.0147.29-.1199.5875-.2206.8863-.3161.6072-.1944 1.2337-.3222 1.8641-.4131-.351.0472-.7023.0944-1.0532.1415.5203-.066 1.0399-.1008 1.5644-.1052 2.1596-.0183 3.962-1.7884 3.962-3.962 0-2.1459-1.802-3.9802-3.962-3.9619-4.0567.0342-7.8909 1.6126-10.8229 4.4081-2.9154 2.7796-4.4939 6.7019-4.6622 10.6873-.1709 4.0495 1.4811 7.9676 4.149 10.9504 2.6917 3.0094 6.5827 4.6096 10.5467 4.9112 4.0694.3096 7.9972-1.3109 11.0664-3.8853 3.1053-2.6045 4.7213-6.4574 5.1554-10.4011.2059-1.8708-.0588-3.8673-.6003-5.6607-.6286-2.0817-1.6885-3.8196-3.017-5.5103-2.4878-3.1657-6.3421-4.8975-10.2504-5.3943-.5204-.0661-1.04-.1008-1.5645-.1053-2.16-.0183-3.962 1.816-3.962 3.9619-.0001 2.1736 1.8023 3.9437 3.9618 3.962z"/><path d="m51.8136 19.4571h13.4129 27.081 21.0115 2.288c2.16 0 3.962-1.8023 3.962-3.962 0-2.1596-1.802-3.9619-3.962-3.9619-4.471 0-8.942 0-13.413 0-9.0267 0-18.0537 0-27.0806 0-7.004 0-14.0079 0-21.0119 0-.7626 0-1.5253 0-2.288 0-2.1597 0-3.9619 1.8023-3.9619 3.9619 0 2.1597 1.8022 3.962 3.962 3.962z"/><path d="m3.96194 19.4571h21.13246 2.5342c2.1597 0 3.9619-1.8023 3.9619-3.962 0-2.1596-1.8022-3.9619-3.9619-3.9619-7.0442 0-14.0882 0-21.13243 0-.84474 0-1.68949 0-2.53423 0-2.15968 0-3.96194 1.8023-3.96194 3.9619 0 2.1597 1.80226 3.962 3.96194 3.962z"/><path d="m39.755 7.92402c.5247.00439 1.0441.03905 1.5646.10527-.3511-.04712-.7021-.09438-1.0533-.1415.5701.08221 1.129.20107 1.6829.35842.3024.08589.5987.19159.8929.3021.3765.14998.234.08843-.4271-.1848.1714.07415.3389.1565.5063.23885.4998.24578.9745.53953 1.433.85465.8375.57559-.7031-.59444.0747.05801.2356.19753.4583.40992.6773.62558.1754.1726.3409.3547.5048.538.0813.0924.1611.1859.2394.2808.4714.5621-.6027-.8086-.1677-.2173.3665.4983.6802 1.0336.9618 1.5836.141.2754.5085 1.1704-.0148-.0952.1199.2899.2206.5875.3162.8862.1944.6073.3221 1.2339.413 1.8641-.0471-.3511-.0944-.7021-.1415-1.0533.1327 1.0435.1327 2.0855 0 3.1291.0471-.3511.0944-.7021.1415-1.0533-.0822.5701-.2011 1.129-.3584 1.6829-.0858.3024-.1916.5987-.302.8929-.15.3765-.0884.234.1848-.427-.0741.1713-.1565.3388-.2388.5062-.2458.4998-.5396.9745-.8547 1.433-.5756.8375.5944-.7031-.058.0747-.1977.2356-.4099.4583-.6256.6773-.1724.1754-.3546.3409-.5378.5048-.0924.0813-.1859.1611-.2809.2394-.562.4715.8087-.6027.2174-.1677-.4984.3665-1.0337.6802-1.5837.9618-.2752.141-1.1703.5085.0953-.0147-.29.1198-.5875.2205-.8862.3161-.6074.1944-1.2339.3221-1.8641.413.351-.0471.7021-.0944 1.0533-.1415-1.0436.1327-2.0856.1327-3.1291 0 .351.0471.7021.0944 1.0533.1415-.5701-.0822-1.129-.2011-1.683-.3584-.3024-.0859-.5987-.1916-.8928-.3021-.3764-.15-.2341-.0885.427.1848-.1712-.0742-.3389-.1565-.5063-.2389-.4996-.2458-.9745-.5395-1.4329-.8546-.8375-.5756.7031.5944-.0747-.058-.2356-.1977-.4583-.41-.6775-.6256-.1753-.1725-.3409-.3546-.5047-.5378-.0814-.0924-.1612-.186-.2395-.2809-.4714-.562.6027.8087.1677.2173-.3665-.4983-.6802-1.0336-.9617-1.5836-.1411-.2752-.5086-1.1703.0147.0952-.1199-.2899-.2206-.5875-.3161-.8862-.1945-.6073-.3222-1.2338-.4131-1.8641.0471.3511.0944.7021.1415 1.0533-.1326-1.0435-.1326-2.0855 0-3.129-.0471.351-.0944.7021-.1415 1.0533.0822-.5701.2011-1.1291.3584-1.683.0859-.3024.1916-.5987.3021-.8929.15-.3764.0885-.234-.1848.4271.0742-.1712.1565-.3389.2389-.5063.2458-.4996.5395-.9745.8546-1.433.5757-.8375-.5944.7031.0581-.0747.1975-.2356.4099-.4583.6255-.6775.1726-.17527.3548-.34083.538-.50468.0924-.08136.1859-.16117.2809-.23942.562-.47147-.8087.60264-.2174.16768.4984-.36648 1.0337-.68018 1.5837-.96176.2753-.14108 1.1703-.50855-.0953.01471.29-.11985.5875-.22059.8862-.3161.6074-.19442 1.2339-.32219 1.8641-.41304-.351.04712-.7021.09438-1.0533.1415.5203-.06622 1.0398-.10088 1.5644-.10527 2.1594-.01825 3.962-1.78839 3.962-3.96194 0-2.14596-1.8021-3.9801982-3.962-3.96194492-4.0567.03424252-7.8909 1.61265492-10.8229 4.40808492-2.9154 2.77958-4.4938 6.70188-4.6622 10.68738-.1709 4.0495 1.4811 7.9676 4.149 10.9503 2.6917 3.0094 6.5825 4.6098 10.5467 4.9113 4.0692.3096 7.9972-1.3108 11.0664-3.8853 3.1053-2.6045 4.7212-6.4574 5.1554-10.401.2058-1.8708-.0588-3.8673-.6004-5.6608-.6287-2.08173-1.6884-3.81975-3.017-5.51037-2.4879-3.16573-6.3421-4.897521-10.2504-5.394321-.5205-.0660791-1.04-.10074599-1.5646-.10527392-2.1598-.01825328-3.9619 1.81598492-3.9619 3.96194492 0 2.1734 1.8025 3.94369 3.9619 3.96194z"/></g></svg>