<svg id="account-icon_Image" data-name="account-icon Image" xmlns="http://www.w3.org/2000/svg" viewBox="0 0 25 29.61"><defs><style>.cls-1{fill:#1c2c38;}</style></defs><path class="cls-1" d="M25,30H0V29c0-9.36,8.24-9.75,8.32-9.75h8.33c.12,0,8.35.44,8.35,9.75ZM2.05,28H23c-.53-6.4-6.1-6.74-6.35-6.75H8.35C8.14,21.26,2.57,21.57,2.05,28Z" transform="translate(0 -0.39)"/><path class="cls-1" d="M12.58,17.66A8.64,8.64,0,1,1,21.22,9,8.65,8.65,0,0,1,12.58,17.66Zm0-15.27A6.64,6.64,0,1,0,19.22,9,6.63,6.63,0,0,0,12.58,2.39Z" transform="translate(0 -0.39)"/></svg>